<svg version="1.1" id="Layer_1" xmlns="http://www.w3.org/2000/svg" xmlns:xlink="http://www.w3.org/1999/xlink" x="0px" y="0px"
	 width="100%" viewBox="0 0 500 500" enable-background="new 0 0 500 500" xml:space="preserve">
<path fill="#FF0101" opacity="1.000000" stroke="none" 
	d="
M273.000000,501.000000 
	C182.000015,501.000000 91.500046,501.000000 1.000049,501.000000 
	C1.000032,334.333405 1.000032,167.666794 1.000016,1.000138 
	C167.666565,1.000092 334.333130,1.000092 500.999756,1.000046 
	C500.999847,167.666519 500.999847,334.333038 500.999939,500.999786 
	C425.166656,501.000000 349.333344,501.000000 273.000000,501.000000 
M431.408569,385.013885 
	C448.845306,381.474884 460.968506,371.379639 468.354279,355.295990 
	C475.308685,340.151794 477.724335,324.003662 477.739990,307.648956 
	C477.788849,256.663910 477.631683,205.672104 476.710632,154.698166 
	C476.525848,144.472702 473.957123,133.785339 470.167053,124.231506 
	C461.329224,101.953476 442.688629,92.769737 419.945984,92.152229 
	C391.806427,91.388176 363.632690,91.880600 335.473724,91.844383 
	C334.514435,91.843147 333.554962,91.995018 332.466248,92.086380 
	C332.466248,190.527649 332.466248,288.716461 332.466248,387.057739 
	C360.799591,387.057739 388.782990,387.143616 416.764832,386.972382 
	C421.371826,386.944214 425.971863,385.787689 431.408569,385.013885 
M26.535851,180.499664 
	C26.535851,249.248596 26.535851,317.997528 26.535851,386.867065 
	C46.711456,386.867065 66.274261,386.867065 86.415306,386.867065 
	C86.415306,341.867920 86.415306,297.164398 86.415306,252.125488 
	C89.658615,252.405365 92.303757,252.584381 94.937355,252.869919 
	C103.651207,253.814636 107.041084,257.004639 108.177315,265.631561 
	C108.610771,268.922668 108.757339,272.272614 108.761086,275.596039 
	C108.800919,310.921204 108.785637,346.246490 108.785522,381.571716 
	C108.785515,383.333008 108.785522,385.094299 108.785522,386.833679 
	C128.354950,386.833679 147.262894,386.833679 166.863434,386.833679 
	C166.863434,346.858948 167.375275,307.204803 166.606369,267.575470 
	C166.307373,252.165161 160.968414,238.280487 143.603714,233.448334 
	C143.406555,233.393478 143.332794,232.895203 143.127548,232.440109 
	C157.922440,226.802261 165.696075,215.509766 168.387970,200.386063 
	C172.766998,175.783676 172.097626,151.156113 165.943954,127.053551 
	C159.997589,103.762978 144.647552,92.331116 120.551559,92.032669 
	C90.063423,91.655052 59.567837,91.875694 29.075457,91.864426 
	C28.295895,91.864136 27.516222,92.167694 26.535847,92.371231 
	C26.535847,121.526543 26.535847,150.513092 26.535851,180.499664 
M275.500000,261.999817 
	C285.621857,261.999817 295.743744,261.999817 305.875366,261.999817 
	C305.875366,243.164627 305.875366,224.813217 305.875366,206.062836 
	C287.366028,206.062836 269.272980,206.062836 251.090118,206.062836 
	C251.090118,186.799744 251.090118,167.944168 251.090118,148.560440 
	C270.527069,148.560440 289.588715,148.560440 308.595703,148.560440 
	C308.595703,129.432602 308.595703,110.837929 308.595703,92.252975 
	C269.120941,92.252975 229.935532,92.252975 190.902527,92.252975 
	C190.902527,190.721832 190.902527,288.770569 190.902527,386.755676 
	C231.616257,386.755676 271.976562,386.755676 312.287903,386.755676 
	C312.287903,367.610291 312.287903,348.878326 312.287903,329.695038 
	C291.668335,329.695038 271.405487,329.695038 250.931488,329.695038 
	C250.931488,306.987946 250.931488,284.736877 250.931488,261.999817 
	C258.921570,261.999817 266.710785,261.999817 275.500000,261.999817 
z"/>
<path fill="#E6E5DC" opacity="1.000000" stroke="none" 
	d="
M430.991852,385.083252 
	C425.971863,385.787689 421.371826,386.944214 416.764832,386.972382 
	C388.782990,387.143616 360.799591,387.057739 332.466248,387.057739 
	C332.466248,288.716461 332.466248,190.527649 332.466248,92.086380 
	C333.554962,91.995018 334.514435,91.843147 335.473724,91.844383 
	C363.632690,91.880600 391.806427,91.388176 419.945984,92.152229 
	C442.688629,92.769737 461.329224,101.953476 470.167053,124.231506 
	C473.957123,133.785339 476.525848,144.472702 476.710632,154.698166 
	C477.631683,205.672104 477.788849,256.663910 477.739990,307.648956 
	C477.724335,324.003662 475.308685,340.151794 468.354279,355.295990 
	C460.968506,371.379639 448.845306,381.474884 430.991852,385.083252 
M391.700653,317.498505 
	C391.700653,323.113495 391.700653,328.728485 391.700653,334.773468 
	C395.717651,334.773468 399.186859,334.932312 402.637115,334.743927 
	C413.372559,334.157806 418.037323,329.398987 418.046661,318.674377 
	C418.091827,266.849396 418.066772,215.024277 417.987793,163.199341 
	C417.982727,159.894867 417.513428,156.553696 416.902985,153.296509 
	C416.028809,148.632263 413.129181,145.240051 408.517090,144.397049 
	C403.200165,143.425217 397.718842,143.353149 391.700623,142.838287 
	C391.700623,201.284561 391.700623,258.891846 391.700653,317.498505 
z"/>
<path fill="#E6E5DC" opacity="1.000000" stroke="none" 
	d="
M26.535849,179.999664 
	C26.535847,150.513092 26.535847,121.526543 26.535847,92.371231 
	C27.516222,92.167694 28.295895,91.864136 29.075457,91.864426 
	C59.567837,91.875694 90.063423,91.655052 120.551559,92.032669 
	C144.647552,92.331116 159.997589,103.762978 165.943954,127.053551 
	C172.097626,151.156113 172.766998,175.783676 168.387970,200.386063 
	C165.696075,215.509766 157.922440,226.802261 143.127548,232.440109 
	C143.332794,232.895203 143.406555,233.393478 143.603714,233.448334 
	C160.968414,238.280487 166.307373,252.165161 166.606369,267.575470 
	C167.375275,307.204803 166.863434,346.858948 166.863434,386.833679 
	C147.262894,386.833679 128.354950,386.833679 108.785522,386.833679 
	C108.785522,385.094299 108.785515,383.333008 108.785522,381.571716 
	C108.785637,346.246490 108.800919,310.921204 108.761086,275.596039 
	C108.757339,272.272614 108.610771,268.922668 108.177315,265.631561 
	C107.041084,257.004639 103.651207,253.814636 94.937355,252.869919 
	C92.303757,252.584381 89.658615,252.405365 86.415306,252.125488 
	C86.415306,297.164398 86.415306,341.867920 86.415306,386.867065 
	C66.274261,386.867065 46.711456,386.867065 26.535851,386.867065 
	C26.535851,317.997528 26.535851,249.248596 26.535849,179.999664 
M104.189651,200.130524 
	C106.389908,197.561935 109.722221,195.326981 110.594551,192.367020 
	C114.381065,179.518799 114.153481,166.373199 110.938507,153.440048 
	C110.338715,151.027222 107.431755,147.871857 105.148155,147.450333 
	C99.247673,146.361145 93.100449,146.608673 86.919189,146.316071 
	C86.919189,165.031250 86.919189,182.780823 86.919189,200.476303 
	C92.578781,200.476303 98.011543,200.476303 104.189651,200.130524 
z"/>
<path fill="#E6E5DC" opacity="1.000000" stroke="none" 
	d="
M275.000000,261.999817 
	C266.710785,261.999817 258.921570,261.999817 250.931488,261.999817 
	C250.931488,284.736877 250.931488,306.987946 250.931488,329.695038 
	C271.405487,329.695038 291.668335,329.695038 312.287903,329.695038 
	C312.287903,348.878326 312.287903,367.610291 312.287903,386.755676 
	C271.976562,386.755676 231.616257,386.755676 190.902527,386.755676 
	C190.902527,288.770569 190.902527,190.721832 190.902527,92.252975 
	C229.935532,92.252975 269.120941,92.252975 308.595703,92.252975 
	C308.595703,110.837929 308.595703,129.432602 308.595703,148.560440 
	C289.588715,148.560440 270.527069,148.560440 251.090118,148.560440 
	C251.090118,167.944168 251.090118,186.799744 251.090118,206.062836 
	C269.272980,206.062836 287.366028,206.062836 305.875366,206.062836 
	C305.875366,224.813217 305.875366,243.164627 305.875366,261.999817 
	C295.743744,261.999817 285.621857,261.999817 275.000000,261.999817 
z"/>
<path fill="#FF0100" opacity="1.000000" stroke="none" 
	d="
M391.700623,316.998840 
	C391.700623,258.891846 391.700623,201.284561 391.700623,142.838287 
	C397.718842,143.353149 403.200165,143.425217 408.517090,144.397049 
	C413.129181,145.240051 416.028809,148.632263 416.902985,153.296509 
	C417.513428,156.553696 417.982727,159.894867 417.987793,163.199341 
	C418.066772,215.024277 418.091827,266.849396 418.046661,318.674377 
	C418.037323,329.398987 413.372559,334.157806 402.637115,334.743927 
	C399.186859,334.932312 395.717651,334.773468 391.700653,334.773468 
	C391.700653,328.728485 391.700653,323.113495 391.700623,316.998840 
z"/>
<path fill="#FF0101" opacity="1.000000" stroke="none" 
	d="
M103.816986,200.303406 
	C98.011543,200.476303 92.578781,200.476303 86.919189,200.476303 
	C86.919189,182.780823 86.919189,165.031250 86.919189,146.316071 
	C93.100449,146.608673 99.247673,146.361145 105.148155,147.450333 
	C107.431755,147.871857 110.338715,151.027222 110.938507,153.440048 
	C114.153481,166.373199 114.381065,179.518799 110.594551,192.367020 
	C109.722221,195.326981 106.389908,197.561935 103.816986,200.303406 
z"/>
</svg>